<?xml version="1.0" standalone="no"?>
<!DOCTYPE svg PUBLIC "-//W3C//DTD SVG 20010904//EN"
 "http://www.w3.org/TR/2001/REC-SVG-20010904/DTD/svg10.dtd">
<svg version="1.0" xmlns="http://www.w3.org/2000/svg"
 width="1239.000000pt" height="1280.000000pt" viewBox="0 0 1239.000000 1280.000000"
 preserveAspectRatio="xMidYMid meet">
<metadata>
Created by potrace 1.15, written by Peter Selinger 2001-2017
</metadata>
<g transform="translate(0.000000,1280.000000) scale(0.100000,-0.100000)"
fill="#ff9800" stroke="none">
<path d="M10060 12795 c-8 -2 -49 -9 -90 -15 -215 -35 -423 -138 -629 -311
-184 -155 -333 -425 -387 -701 -24 -119 -21 -315 5 -445 91 -440 397 -798 801
-936 185 -63 234 -72 410 -72 285 0 470 57 710 217 223 148 421 415 490 658
65 233 66 524 0 722 -147 445 -500 768 -942 864 -66 14 -332 28 -368 19z"/>
<path d="M6960 11589 c-400 -18 -669 -57 -1045 -150 -243 -60 -593 -182 -825
-287 -90 -40 -94 -47 -66 -107 24 -52 380 -672 706 -1230 102 -176 206 -356
230 -400 23 -44 54 -95 68 -113 29 -41 34 -40 222 20 294 93 462 123 760 137
234 11 524 1 675 -24 262 -43 670 -172 887 -281 113 -56 348 -202 451 -279
140 -106 352 -300 489 -449 78 -84 147 -175 238 -312 235 -354 342 -602 454
-1057 l53 -212 64 -6 c88 -9 1963 -9 2019 -1 l45 7 -3 65 c-5 115 -61 481 -96
630 -67 284 -176 625 -280 880 -62 151 -236 492 -333 655 -152 253 -423 614
-620 822 l-68 73 -100 -43 c-146 -64 -205 -82 -367 -116 -192 -40 -276 -46
-443 -31 -260 22 -454 74 -670 180 -362 177 -639 449 -814 797 -83 167 -151
383 -177 563 -8 58 -17 113 -20 122 -9 31 -210 73 -564 117 -338 42 -497 48
-870 30z"/>
<path d="M4053 10539 c-275 -208 -468 -385 -704 -646 -348 -386 -588 -735
-805 -1173 -142 -286 -250 -550 -315 -768 -15 -51 -13 -54 137 -177 331 -273
540 -623 626 -1046 20 -99 23 -143 22 -329 0 -285 -27 -428 -126 -679 -78
-194 -160 -320 -338 -516 -90 -99 -280 -280 -322 -306 -27 -17 155 -505 287
-769 256 -513 558 -940 955 -1353 283 -294 714 -648 757 -621 8 5 49 63 90
129 127 201 952 1633 961 1667 3 14 -41 65 -180 206 -273 278 -349 369 -485
580 -247 384 -436 925 -474 1355 -16 180 -7 653 15 772 62 337 177 679 320
950 162 306 332 530 619 814 91 90 171 175 178 188 11 21 9 31 -15 81 -28 57
-210 372 -384 667 -52 88 -194 333 -315 545 -266 466 -312 540 -338 540 -10 0
-85 -50 -166 -111z"/>
<path d="M1095 7633 c-93 -12 -202 -39 -294 -74 -399 -149 -684 -486 -777
-919 -26 -120 -26 -373 0 -490 35 -163 95 -307 184 -445 57 -88 233 -264 332
-332 332 -227 729 -283 1099 -157 310 107 602 367 735 655 74 160 105 293 112
484 15 355 -103 659 -354 911 -196 198 -415 316 -666 359 -81 14 -291 18 -371
8z"/>
<path d="M10458 5963 l-207 -3 -11 -58 c-115 -573 -292 -971 -626 -1402 -110
-142 -355 -390 -491 -498 -421 -333 -956 -566 -1457 -637 -202 -28 -470 -39
-670 -26 -289 18 -480 54 -768 147 -76 24 -147 44 -158 44 -10 0 -30 -15 -43
-32 -14 -18 -155 -260 -315 -538 -159 -278 -370 -642 -467 -810 -185 -318
-245 -428 -245 -453 0 -30 416 -201 685 -280 305 -91 593 -151 925 -193 159
-21 778 -30 982 -15 244 18 726 93 779 122 22 11 32 48 58 209 88 561 461
1050 994 1305 255 122 454 166 743 166 263 0 452 -32 672 -115 68 -25 131 -46
139 -46 27 0 78 45 170 152 544 631 935 1386 1118 2162 67 287 137 768 115
790 -11 11 -1401 17 -1922 9z"/>
<path d="M9970 2474 c-518 -94 -915 -486 -1017 -1004 -25 -125 -22 -335 6
-469 34 -162 98 -315 189 -456 53 -81 206 -236 307 -313 180 -135 477 -232
710 -232 231 1 500 73 665 178 301 192 516 503 581 844 17 86 17 346 0 438
-93 522 -510 930 -1034 1015 -112 18 -305 18 -407 -1z"/>
</g>
</svg>
